<?xml version="1.0" encoding="utf-8"?>
<!-- Generator: Adobe Illustrator 17.0.0, SVG Export Plug-In . SVG Version: 6.00 Build 0)  -->
<!DOCTYPE svg PUBLIC "-//W3C//DTD SVG 1.1//EN" "http://www.w3.org/Graphics/SVG/1.1/DTD/svg11.dtd">
<svg version="1.1" id="Layer_1" xmlns="http://www.w3.org/2000/svg" xmlns:xlink="http://www.w3.org/1999/xlink" x="0px" y="0px"
	 width="100px" height="46.51px" viewBox="0 26.745 100 46.51" enable-background="new 0 26.745 100 46.51" xml:space="preserve">
<g>
	<g>
		<g>
			<path d="M32.487,59.48H19.929c0.241-1.516,0.788-2.833,1.641-3.954c0.853-1.12,1.925-2.066,3.217-2.842
				c0.672-0.413,1.365-0.84,2.081-1.279c0.714-0.44,1.442-0.883,2.184-1.331c0.74-0.448,1.347-0.982,1.821-1.602
				c0.474-0.62,0.711-1.438,0.711-2.455c0-0.413-0.082-0.779-0.246-1.098c-0.164-0.318-0.379-0.585-0.646-0.801
				c-0.267-0.215-0.581-0.375-0.943-0.478c-0.362-0.104-0.732-0.155-1.111-0.155c-0.568,0-1.077,0.108-1.524,0.323
				c-0.448,0.216-0.832,0.508-1.15,0.879c-0.319,0.371-0.569,0.81-0.75,1.318c-0.181,0.509-0.288,1.055-0.323,1.641H22.1
				c0.086-0.982,0.293-1.882,0.62-2.7c0.327-0.818,0.775-1.516,1.343-2.093c0.569-0.577,1.258-1.025,2.067-1.344
				c0.809-0.318,1.731-0.478,2.765-0.478c0.792,0,1.528,0.103,2.209,0.31c0.68,0.207,1.275,0.517,1.783,0.93
				c0.508,0.413,0.908,0.939,1.201,1.576c0.293,0.638,0.439,1.378,0.439,2.222c0,0.999-0.194,1.869-0.581,2.61
				c-0.388,0.741-0.896,1.4-1.525,1.977c-0.629,0.577-1.335,1.103-2.119,1.577s-1.568,0.943-2.351,1.409
				c-0.784,0.465-1.537,0.952-2.261,1.459c-0.724,0.508-1.327,1.09-1.809,1.745h9.173L32.487,59.48z"/>
		</g>
		<g>
			<path d="M35.278,52.916c0-0.12,0.026-0.499,0.077-1.137c0.052-0.637,0.168-1.395,0.349-2.274
				c0.181-0.879,0.448-1.813,0.801-2.804c0.353-0.99,0.84-1.908,1.46-2.752c0.62-0.844,1.391-1.541,2.312-2.093
				c0.922-0.551,2.037-0.827,3.347-0.827c1.929,0,3.303,0.603,4.121,1.809c0.818,1.206,1.228,2.912,1.228,5.116
				c0,0.379-0.043,0.935-0.129,1.667c-0.086,0.733-0.237,1.537-0.452,2.417c-0.216,0.878-0.521,1.783-0.917,2.713
				c-0.396,0.931-0.9,1.77-1.512,2.52c-0.611,0.749-1.357,1.365-2.235,1.847c-0.879,0.482-1.912,0.723-3.101,0.723
				c-0.965,0-1.787-0.168-2.468-0.504c-0.681-0.335-1.232-0.809-1.654-1.421c-0.422-0.611-0.733-1.34-0.93-2.184
				C35.377,54.889,35.278,53.95,35.278,52.916z M46.027,47.102c0-0.465-0.043-0.917-0.129-1.357
				c-0.086-0.439-0.233-0.827-0.44-1.163c-0.207-0.335-0.487-0.603-0.84-0.801c-0.353-0.198-0.797-0.297-1.331-0.297
				c-0.62,0-1.176,0.185-1.667,0.555c-0.491,0.371-0.926,0.857-1.305,1.46s-0.702,1.279-0.969,2.028
				c-0.267,0.749-0.482,1.508-0.646,2.274s-0.284,1.499-0.362,2.197c-0.077,0.697-0.116,1.287-0.116,1.769
				c0,0.466,0.043,0.917,0.129,1.357c0.086,0.44,0.232,0.827,0.439,1.163c0.207,0.335,0.487,0.603,0.84,0.801
				c0.353,0.198,0.796,0.297,1.331,0.297c0.62,0,1.176-0.185,1.667-0.556s0.926-0.857,1.305-1.46s0.702-1.279,0.969-2.029
				c0.267-0.749,0.482-1.507,0.646-2.274s0.284-1.499,0.362-2.197C45.989,48.174,46.027,47.584,46.027,47.102z"/>
		</g>
		<g>
			<path d="M61.221,59.48H48.663c0.242-1.516,0.788-2.833,1.641-3.954c0.852-1.12,1.925-2.066,3.217-2.842
				c0.671-0.413,1.364-0.84,2.08-1.279c0.715-0.44,1.443-0.883,2.185-1.331c0.74-0.448,1.348-0.982,1.821-1.602
				c0.473-0.62,0.711-1.438,0.711-2.455c0-0.413-0.083-0.779-0.247-1.098c-0.164-0.318-0.378-0.585-0.645-0.801
				c-0.269-0.215-0.582-0.375-0.944-0.478c-0.362-0.104-0.734-0.155-1.111-0.155c-0.568,0-1.077,0.108-1.524,0.323
				c-0.449,0.216-0.833,0.508-1.15,0.879c-0.319,0.371-0.57,0.81-0.75,1.318c-0.182,0.509-0.289,1.055-0.323,1.641h-2.79
				c0.087-0.982,0.293-1.882,0.62-2.7s0.776-1.516,1.344-2.093s1.257-1.025,2.067-1.344c0.808-0.318,1.73-0.478,2.765-0.478
				c0.792,0,1.528,0.103,2.209,0.31s1.275,0.517,1.782,0.93c0.509,0.413,0.909,0.939,1.202,1.576
				c0.293,0.638,0.439,1.378,0.439,2.222c0,0.999-0.194,1.869-0.58,2.61c-0.388,0.741-0.897,1.4-1.526,1.977
				s-1.334,1.103-2.118,1.577s-1.568,0.943-2.352,1.409c-0.784,0.465-1.538,0.952-2.261,1.459c-0.723,0.508-1.326,1.09-1.809,1.745
				h9.175L61.221,59.48z"/>
		</g>
		<g>
			<path d="M64.011,52.916c0-0.12,0.026-0.499,0.078-1.137c0.052-0.637,0.168-1.395,0.349-2.274
				c0.181-0.879,0.448-1.813,0.801-2.804c0.353-0.99,0.84-1.908,1.46-2.752c0.62-0.844,1.39-1.541,2.313-2.093
				c0.921-0.551,2.037-0.827,3.346-0.827c1.93,0,3.303,0.603,4.122,1.809c0.818,1.206,1.228,2.912,1.228,5.116
				c0,0.379-0.043,0.935-0.129,1.667c-0.086,0.733-0.236,1.537-0.452,2.417c-0.216,0.878-0.521,1.783-0.917,2.713
				c-0.397,0.931-0.9,1.77-1.512,2.52c-0.612,0.749-1.357,1.365-2.235,1.847c-0.879,0.482-1.913,0.723-3.101,0.723
				c-0.965,0-1.787-0.168-2.468-0.504c-0.681-0.335-1.232-0.809-1.654-1.421s-0.733-1.34-0.931-2.184
				C64.111,54.889,64.011,53.95,64.011,52.916z M74.762,47.102c0-0.465-0.043-0.917-0.129-1.357
				c-0.087-0.439-0.232-0.827-0.44-1.163c-0.207-0.335-0.487-0.603-0.84-0.801c-0.354-0.198-0.797-0.297-1.331-0.297
				c-0.62,0-1.176,0.185-1.667,0.555c-0.49,0.371-0.926,0.857-1.304,1.46c-0.379,0.603-0.702,1.279-0.969,2.028
				s-0.482,1.508-0.646,2.274c-0.165,0.766-0.285,1.499-0.362,2.197c-0.078,0.697-0.116,1.287-0.116,1.769
				c0,0.466,0.042,0.917,0.128,1.357c0.087,0.44,0.233,0.827,0.44,1.163c0.207,0.335,0.487,0.603,0.84,0.801
				c0.354,0.198,0.797,0.297,1.331,0.297c0.62,0,1.176-0.185,1.667-0.556s0.926-0.857,1.304-1.46s0.702-1.279,0.969-2.029
				c0.267-0.749,0.482-1.507,0.647-2.274c0.163-0.767,0.284-1.499,0.362-2.197C74.722,48.174,74.762,47.584,74.762,47.102z"/>
		</g>
	</g>
	<g>
		<path d="M49.999,73.255C22.01,73.255,0.086,63.04,0.086,50S22.01,26.745,49.999,26.745c27.99,0,49.914,10.215,49.914,23.255
			C99.914,63.04,77.989,73.255,49.999,73.255z M49.999,29.013C23.728,29.013,2.354,38.428,2.354,50s21.374,20.986,47.645,20.986
			c26.272,0,47.645-9.414,47.645-20.986S76.271,29.013,49.999,29.013z"/>
	</g>
</g>
</svg>
